# xmcd
#
# Track frame offsets:
#	150
#	12312
#	29658
#	43409
#	58804
#	75578
#	95070
#	104781
#	129455
#	163492
#	176185
#	200191
#	223180
#	237711
#	249470
#	265437
#	281876
#	300182
#
# Disc length: 4686 seconds
#
# Revision: 1
# Processed by: cddbd v1.5.1PL2 Copyright (c) Steve Scherf et al.
# Submitted via: audiograbber 1.83.01
#
DISCID=27124c12
DTITLE=Various Artist - smunky gets the blues
DYEAR=1900
DGENRE=Blues
TTITLE0=Nina Simone - I Put a Spell on You
TTITLE1=Dana Gillespie - Long Lean Baby
TTITLE2=Dinah Washington - Big Long Slidin' Thing
TTITLE3=Eric Clapton - Sinner's Prayer
TTITLE4=Dana Gillespie - Organ Grinder
TTITLE5=Eva Cassidy - Fever
TTITLE6=Bill Withers - Ain't No Sunshine
TTITLE7=Lavay Smith - One Hour Mama
TTITLE8=Jimmy Cheatham - Meet Me With Your Black Drawers On
TTITLE9=Little Milton - Let Me Down Easy
TTITLE10=Jimmy Cheatham - How Long Blues
TTITLE11=Aaron Neville - Use Me
TTITLE12=Muddy Waters - Funky Butt
TTITLE13=Nina Simone - I Want A Little Sugar In My Bowl
TTITLE14=Ray Charles - Night Time is the Right Time
TTITLE15=Dinah Washinton - Trombone Butter
TTITLE16=Marvin Gaye - Let's Get it On
TTITLE17=Yoko Noge - I want a Little Girl
EXTD=compilation disc, made by Charlie Fuller. motorthings ATT hotmail.com
EXTT0=
EXTT1=
EXTT2=
EXTT3=
EXTT4=
EXTT5=
EXTT6=
EXTT7=
EXTT8=
EXTT9=
EXTT10=
EXTT11=
EXTT12=
EXTT13=
EXTT14=
EXTT15=
EXTT16=
EXTT17=
PLAYORDER=
